# xmcd CD Database Entry
#
# Track frame offsets:
# 150
# 21307
# 32654
# 45197
# 60534
# 75980
# 91544
# 99505
# 113323
# 127753
# 136902
# 151527
# 166218
# 176574
# 191121
# 205496
#
# Disc length: 2907 seconds
#
# Revision: 4
# Processed by: cddbd v1.4PL0 Copyright (c) Steve Scherf et al.
# Submitted via: tcd 2.0b
#
DISCID=b00b5910
DTITLE=理查德.克莱德曼
DYEAR=1900
DGENRE=
TTITLE0=星空
TTITLE1=梦中的鸟
TTITLE2=午后的旅行
TTITLE3=贝古依奈的出发
TTITLE4=梦的传说
TTITLE5=向黑夜出发
TTITLE6=摇篮曲
TTITLE7=记忆
TTITLE8=拉.梅尔
TTITLE9=爱的旋律
TTITLE10=野花
TTITLE11=情感
TTITLE12=瓦妮莎的微笑
TTITLE13=海边的祈祷
TTITLE14=欢乐颂
TTITLE15=忘却的悲伤
EXTD=
EXTT0=
EXTT1=
EXTT2=
EXTT3=
EXTT4=
EXTT5=
EXTT6=
EXTT7=
EXTT8=
EXTT9=
EXTT10=
EXTT11=
EXTT12=
EXTT13=
EXTT14=
EXTT15=
PLAYORDER=
